<svg width="26" height="29" viewBox="0 0 26 29" fill="none" xmlns="http://www.w3.org/2000/svg">
<path d="M15.6666 28H10.3333M20.9999 10.6667C20.9999 8.54496 20.1571 6.51012 18.6568 5.00983C17.1565 3.50954 15.1217 2.66669 12.9999 2.66669C10.8782 2.66669 8.84338 3.50954 7.34309 5.00983C5.8428 6.51012 4.99994 8.54496 4.99994 10.6667C4.99994 14.7869 3.96057 17.608 2.7995 19.4739C1.82011 21.0479 1.33042 21.8348 1.34838 22.0544C1.36826 22.2975 1.41976 22.3902 1.61564 22.5355C1.79256 22.6667 2.59006 22.6667 4.18508 22.6667H21.8148C23.4098 22.6667 24.2073 22.6667 24.3842 22.5355C24.5801 22.3902 24.6316 22.2975 24.6515 22.0544C24.6695 21.8348 24.1798 21.0479 23.2004 19.4739C22.0393 17.608 20.9999 14.7869 20.9999 10.6667Z" stroke="black" stroke-width="2" stroke-linecap="round" stroke-linejoin="round"/>
<circle cx="22" cy="3" r="3" fill="#DC4A2D"/>
</svg>
